<?xml version="1.0"?>
<svg xmlns="http://www.w3.org/2000/svg" xmlns:xlink="http://www.w3.org/1999/xlink" version="1.1" id="Capa_1" x="0px" y="0px" viewBox="0 0 60 60" style="enable-background:new 0 0 60 60;" xml:space="preserve" width="512px" height="512px" class=""><g><g>
	<path d="M45.5,34c-7.168,0-13,5.832-13,13s5.832,13,13,13s13-5.832,13-13S52.668,34,45.5,34z M45.5,58c-6.065,0-11-4.935-11-11   s4.935-11,11-11s11,4.935,11,11S51.565,58,45.5,58z" data-original="#000000" class="active-path" data-old_color="#ffffff" fill="#ffffff"/>
	<path d="M51.5,46h-5v-5c0-0.552-0.448-1-1-1s-1,0.448-1,1v5h-5c-0.552,0-1,0.448-1,1s0.448,1,1,1h5v5c0,0.552,0.448,1,1,1   s1-0.448,1-1v-5h5c0.552,0,1-0.448,1-1S52.052,46,51.5,46z" data-original="#000000" class="active-path" data-old_color="#ffffff" fill="#ffffff"/>
	<path d="M29.551,48H12.5c-0.552,0-1-0.447-1-1s0.448-1,1-1h17.051c0.133-2.142,0.687-4.167,1.584-6H12.5c-0.552,0-1-0.447-1-1   s0.448-1,1-1h19.782c2.884-4.222,7.732-7,13.218-7c1.026,0,2.027,0.106,3,0.292V14.586L33.914,0H1.5v60h34.708   C32.41,57.278,29.859,52.943,29.551,48z M32.5,2l14,14h-14V2z M12.5,14h10c0.552,0,1,0.447,1,1s-0.448,1-1,1h-10   c-0.552,0-1-0.447-1-1S11.948,14,12.5,14z M12.5,22h25c0.552,0,1,0.447,1,1s-0.448,1-1,1h-25c-0.552,0-1-0.447-1-1   S11.948,22,12.5,22z M12.5,30h25c0.552,0,1,0.447,1,1s-0.448,1-1,1h-25c-0.552,0-1-0.447-1-1S11.948,30,12.5,30z" data-original="#000000" class="active-path" data-old_color="#ffffff" fill="#ffffff"/>
</g></g> </svg>
